<?xml version="1.0" encoding="utf-8"?>
<!-- Generator: Adobe Illustrator 23.0.1, SVG Export Plug-In . SVG Version: 6.00 Build 0)  -->
<svg version="1.1" id="Layer_1" xmlns="http://www.w3.org/2000/svg" xmlns:xlink="http://www.w3.org/1999/xlink" x="0px" y="0px"
	 viewBox="0 0 185 109.1" style="enable-background:new 0 0 185 109.1;" xml:space="preserve">
<style type="text/css">
	.st0{fill:#FFFFFF;}
</style>
<path class="st0" d="M-65.2,52.6c7.2,0,13.5-2.6,18.6-7.7c5.1-5.1,7.7-11.4,7.7-18.6c0-7.2-2.6-13.5-7.7-18.6C-51.8,2.6-58,0-65.2,0
	c-7.2,0-13.5,2.6-18.6,7.7s-7.7,11.4-7.7,18.6c0,7.2,2.6,13.5,7.7,18.6C-78.7,50-72.5,52.6-65.2,52.6z"/>
<path class="st0" d="M-19.3,83.9c-0.1-2.1-0.4-4.4-0.9-6.9c-0.4-2.5-1-4.8-1.7-6.9c-0.7-2.2-1.7-4.4-2.8-6.5c-1.2-2.2-2.7-4-4.3-5.6
	c-1.7-1.6-3.8-2.9-6.2-3.9c-2.4-0.9-5-1.4-7.9-1.4c-1.1,0-2.2,0.5-4.3,1.8c-1.3,0.8-2.8,1.8-4.4,2.9c-1.4,0.9-3.4,1.8-5.8,2.5
	c-2.3,0.8-4.7,1.1-7,1.1c-2.3,0-4.7-0.4-7-1.1c-2.4-0.8-4.3-1.6-5.8-2.5c-1.7-1.1-3.2-2-4.5-2.9c-2.1-1.4-3.2-1.8-4.3-1.8
	c-2.8,0-5.5,0.5-7.9,1.4c-2.4,0.9-4.5,2.3-6.2,3.9c-1.6,1.6-3.1,3.4-4.3,5.6c-1.2,2.1-2.1,4.3-2.8,6.5c-0.7,2.1-1.3,4.5-1.7,6.9
	c-0.4,2.4-0.7,4.8-0.9,6.9c-0.1,2.1-0.2,4.3-0.2,6.4c0,5.7,1.8,10.3,5.4,13.7c3.5,3.4,8.2,5.1,13.9,5.1h52.5
	c5.7,0,10.3-1.7,13.9-5.1c3.6-3.4,5.4-8,5.4-13.7C-19,88.1-19.1,86-19.3,83.9z"/>
<path class="st0" d="M47.5,52.6c7.2,0,13.5-2.6,18.6-7.7c5.1-5.1,7.7-11.4,7.7-18.6c0-7.2-2.6-13.5-7.7-18.6C61,2.6,54.7,0,47.5,0
	C40.3,0,34,2.6,28.9,7.7s-7.7,11.4-7.7,18.6c0,7.2,2.6,13.5,7.7,18.6C34,50,40.3,52.6,47.5,52.6z"/>
<path class="st0" d="M93.5,83.9c-0.1-2.1-0.4-4.4-0.9-6.9c-0.4-2.5-1-4.8-1.7-6.9c-0.7-2.2-1.7-4.4-2.8-6.5c-1.2-2.2-2.7-4-4.3-5.6
	c-1.7-1.6-3.8-2.9-6.2-3.9c-2.4-0.9-5-1.4-7.9-1.4c-1.1,0-2.2,0.5-4.3,1.8c-1.3,0.8-2.8,1.8-4.4,2.9c-1.4,0.9-3.4,1.8-5.8,2.5
	c-2.3,0.8-4.7,1.1-7,1.1c-2.3,0-4.7-0.4-7-1.1c-2.4-0.8-4.3-1.6-5.8-2.5c-1.7-1.1-3.2-2-4.5-2.9c-2.1-1.4-3.2-1.8-4.3-1.8
	c-2.8,0-5.5,0.5-7.9,1.4c-2.4,0.9-4.5,2.3-6.2,3.9c-1.6,1.6-3.1,3.4-4.3,5.6c-1.2,2.1-2.1,4.3-2.8,6.5c-0.7,2.1-1.3,4.5-1.7,6.9
	c-0.4,2.4-0.7,4.8-0.9,6.9c-0.1,2.1-0.2,4.3-0.2,6.4c0,5.7,1.8,10.3,5.4,13.7c3.5,3.4,8.2,5.1,13.9,5.1h52.5
	c5.7,0,10.3-1.7,13.9-5.1c3.6-3.4,5.4-8,5.4-13.7C93.7,88.1,93.6,86,93.5,83.9z"/>
<path class="st0" d="M138.5,52.6c7.2,0,13.5-2.6,18.6-7.7c5.1-5.1,7.7-11.4,7.7-18.6c0-7.2-2.6-13.5-7.7-18.6
	C152,2.6,145.7,0,138.5,0c-7.2,0-13.5,2.6-18.6,7.7s-7.7,11.4-7.7,18.6c0,7.2,2.6,13.5,7.7,18.6C125,50,131.3,52.6,138.5,52.6z"/>
<path class="st0" d="M184.5,83.9c-0.1-2.1-0.4-4.4-0.9-6.9c-0.4-2.5-1-4.8-1.7-6.9c-0.7-2.2-1.7-4.4-2.8-6.5c-1.2-2.2-2.7-4-4.3-5.6
	c-1.7-1.6-3.8-2.9-6.2-3.9c-2.4-0.9-5-1.4-7.9-1.4c-1.1,0-2.2,0.5-4.3,1.8c-1.3,0.8-2.8,1.8-4.4,2.9c-1.4,0.9-3.4,1.8-5.8,2.5
	c-2.3,0.8-4.7,1.1-7,1.1c-2.3,0-4.7-0.4-7-1.1c-2.4-0.8-4.3-1.6-5.8-2.5c-1.7-1.1-3.2-2-4.5-2.9c-2.1-1.4-3.2-1.8-4.3-1.8
	c-2.8,0-5.5,0.5-7.9,1.4c-2.4,0.9-4.5,2.3-6.2,3.9c-1.6,1.6-3.1,3.4-4.3,5.6c-1.2,2.1-2.1,4.3-2.8,6.5c-0.7,2.1-1.3,4.5-1.7,6.9
	c-0.4,2.4-0.7,4.8-0.9,6.9c-0.1,2.1-0.2,4.3-0.2,6.4c0,5.7,1.8,10.3,5.4,13.7c3.5,3.4,8.2,5.1,13.9,5.1h52.5
	c5.7,0,10.3-1.7,13.9-5.1c3.6-3.4,5.4-8,5.4-13.7C184.7,88.1,184.7,86,184.5,83.9z"/>
</svg>
